<mxfile host="www.draw.io" modified="2023-05-21T19:21:17.016Z" agent="Mozilla/5.0 (Windows NT 10.0; Win64; x64) AppleWebKit/537.36 (KHTML, like Gecko) Chrome/113.0.0.0 Safari/537.36 Edg/113.0.1774.42" etag="9azn4kZT3fTO9qeO6P-y" version="21.3.2" type="device">
  <diagram name="Page-1" id="ahuA_XhEVQ1SrpNZxwzi">
    <mxGraphModel dx="2163" dy="716" grid="1" gridSize="10" guides="1" tooltips="1" connect="1" arrows="1" fold="1" page="1" pageScale="1" pageWidth="850" pageHeight="1100" math="0" shadow="0">
      <root>
        <mxCell id="0" />
        <mxCell id="1" parent="0" />
        <mxCell id="E5WlhXvvEG0pekKaVleW-13" value="&lt;u style=&quot;font-size: 14px;&quot;&gt;:User&lt;/u&gt;" style="shape=umlLifeline;perimeter=lifelinePerimeter;whiteSpace=wrap;html=1;container=1;dropTarget=0;collapsible=0;recursiveResize=0;outlineConnect=0;portConstraint=eastwest;newEdgeStyle={&quot;edgeStyle&quot;:&quot;elbowEdgeStyle&quot;,&quot;elbow&quot;:&quot;vertical&quot;,&quot;curved&quot;:0,&quot;rounded&quot;:0};fontFamily=Times New Roman;fontSize=14;" parent="1" vertex="1">
          <mxGeometry x="40" y="40" width="60" height="700" as="geometry" />
        </mxCell>
        <mxCell id="E5WlhXvvEG0pekKaVleW-18" value="" style="html=1;points=[];perimeter=orthogonalPerimeter;outlineConnect=0;targetShapes=umlLifeline;portConstraint=eastwest;newEdgeStyle={&quot;edgeStyle&quot;:&quot;elbowEdgeStyle&quot;,&quot;elbow&quot;:&quot;vertical&quot;,&quot;curved&quot;:0,&quot;rounded&quot;:0};fontFamily=Times New Roman;fontSize=14;" parent="E5WlhXvvEG0pekKaVleW-13" vertex="1">
          <mxGeometry x="25" y="60" width="10" height="610" as="geometry" />
        </mxCell>
        <mxCell id="E5WlhXvvEG0pekKaVleW-16" value="&lt;u style=&quot;font-size: 14px;&quot;&gt;:Server&lt;/u&gt;" style="shape=umlLifeline;perimeter=lifelinePerimeter;whiteSpace=wrap;html=1;container=1;dropTarget=0;collapsible=0;recursiveResize=0;outlineConnect=0;portConstraint=eastwest;newEdgeStyle={&quot;edgeStyle&quot;:&quot;elbowEdgeStyle&quot;,&quot;elbow&quot;:&quot;vertical&quot;,&quot;curved&quot;:0,&quot;rounded&quot;:0};fontFamily=Times New Roman;fontSize=14;" parent="1" vertex="1">
          <mxGeometry x="520" y="40" width="70" height="690" as="geometry" />
        </mxCell>
        <mxCell id="E5WlhXvvEG0pekKaVleW-21" value="" style="html=1;points=[];perimeter=orthogonalPerimeter;outlineConnect=0;targetShapes=umlLifeline;portConstraint=eastwest;newEdgeStyle={&quot;edgeStyle&quot;:&quot;elbowEdgeStyle&quot;,&quot;elbow&quot;:&quot;vertical&quot;,&quot;curved&quot;:0,&quot;rounded&quot;:0};fontFamily=Times New Roman;fontSize=14;" parent="E5WlhXvvEG0pekKaVleW-16" vertex="1">
          <mxGeometry x="30" y="60" width="10" height="250" as="geometry" />
        </mxCell>
        <mxCell id="SI8LrNcYYZtn0SlJ59PS-16" value="" style="html=1;points=[];perimeter=orthogonalPerimeter;outlineConnect=0;targetShapes=umlLifeline;portConstraint=eastwest;newEdgeStyle={&quot;edgeStyle&quot;:&quot;elbowEdgeStyle&quot;,&quot;elbow&quot;:&quot;vertical&quot;,&quot;curved&quot;:0,&quot;rounded&quot;:0};fontFamily=Times New Roman;fontSize=14;" vertex="1" parent="E5WlhXvvEG0pekKaVleW-16">
          <mxGeometry x="30" y="360" width="10" height="310" as="geometry" />
        </mxCell>
        <mxCell id="E5WlhXvvEG0pekKaVleW-17" value="&lt;u style=&quot;font-size: 14px;&quot;&gt;:Database&lt;/u&gt;" style="shape=umlLifeline;perimeter=lifelinePerimeter;whiteSpace=wrap;html=1;container=1;dropTarget=0;collapsible=0;recursiveResize=0;outlineConnect=0;portConstraint=eastwest;newEdgeStyle={&quot;edgeStyle&quot;:&quot;elbowEdgeStyle&quot;,&quot;elbow&quot;:&quot;vertical&quot;,&quot;curved&quot;:0,&quot;rounded&quot;:0};fontFamily=Times New Roman;fontSize=14;" parent="1" vertex="1">
          <mxGeometry x="680" y="40" width="70" height="680" as="geometry" />
        </mxCell>
        <mxCell id="SI8LrNcYYZtn0SlJ59PS-3" value="" style="html=1;points=[];perimeter=orthogonalPerimeter;outlineConnect=0;targetShapes=umlLifeline;portConstraint=eastwest;newEdgeStyle={&quot;edgeStyle&quot;:&quot;elbowEdgeStyle&quot;,&quot;elbow&quot;:&quot;vertical&quot;,&quot;curved&quot;:0,&quot;rounded&quot;:0};fontSize=14;fontFamily=Times New Roman;" vertex="1" parent="E5WlhXvvEG0pekKaVleW-17">
          <mxGeometry x="30" y="80" width="10" height="220" as="geometry" />
        </mxCell>
        <mxCell id="SI8LrNcYYZtn0SlJ59PS-17" value="" style="html=1;points=[];perimeter=orthogonalPerimeter;outlineConnect=0;targetShapes=umlLifeline;portConstraint=eastwest;newEdgeStyle={&quot;edgeStyle&quot;:&quot;elbowEdgeStyle&quot;,&quot;elbow&quot;:&quot;vertical&quot;,&quot;curved&quot;:0,&quot;rounded&quot;:0};fontFamily=Times New Roman;fontSize=14;" vertex="1" parent="E5WlhXvvEG0pekKaVleW-17">
          <mxGeometry x="30" y="390" width="10" height="180" as="geometry" />
        </mxCell>
        <mxCell id="E5WlhXvvEG0pekKaVleW-24" value="" style="edgeStyle=elbowEdgeStyle;rounded=0;orthogonalLoop=1;jettySize=auto;html=1;elbow=vertical;curved=0;fontFamily=Times New Roman;fontSize=14;" parent="1" source="E5WlhXvvEG0pekKaVleW-18" target="E5WlhXvvEG0pekKaVleW-21" edge="1">
          <mxGeometry relative="1" as="geometry">
            <mxPoint x="155" y="290" as="targetPoint" />
            <Array as="points">
              <mxPoint x="320" y="120" />
              <mxPoint x="110" y="120" />
            </Array>
          </mxGeometry>
        </mxCell>
        <mxCell id="E5WlhXvvEG0pekKaVleW-25" value="login()" style="text;html=1;align=center;verticalAlign=middle;resizable=0;points=[];autosize=1;strokeColor=none;fillColor=none;fontFamily=Times New Roman;fontSize=14;" parent="1" vertex="1">
          <mxGeometry x="80" y="98" width="60" height="30" as="geometry" />
        </mxCell>
        <mxCell id="E5WlhXvvEG0pekKaVleW-38" value="" style="html=1;verticalAlign=bottom;endArrow=open;dashed=1;endSize=8;edgeStyle=elbowEdgeStyle;elbow=vertical;curved=0;rounded=0;fontFamily=Times New Roman;fontSize=14;" parent="1" source="E5WlhXvvEG0pekKaVleW-21" target="E5WlhXvvEG0pekKaVleW-18" edge="1">
          <mxGeometry x="0.7684" y="-10" relative="1" as="geometry">
            <mxPoint x="510" y="250" as="sourcePoint" />
            <mxPoint x="430" y="250" as="targetPoint" />
            <Array as="points">
              <mxPoint x="340" y="225" />
              <mxPoint x="220" y="150" />
              <mxPoint x="330" y="140" />
            </Array>
            <mxPoint as="offset" />
          </mxGeometry>
        </mxCell>
        <mxCell id="E5WlhXvvEG0pekKaVleW-39" value="Login successful" style="edgeLabel;html=1;align=center;verticalAlign=middle;resizable=0;points=[];fontFamily=Times New Roman;fontSize=14;" parent="E5WlhXvvEG0pekKaVleW-38" vertex="1" connectable="0">
          <mxGeometry x="0.7549" y="-3" relative="1" as="geometry">
            <mxPoint x="46" y="-7" as="offset" />
          </mxGeometry>
        </mxCell>
        <mxCell id="E5WlhXvvEG0pekKaVleW-51" value="" style="edgeStyle=elbowEdgeStyle;rounded=0;orthogonalLoop=1;jettySize=auto;html=1;elbow=vertical;curved=0;fontFamily=Times New Roman;fontSize=14;" parent="1" source="E5WlhXvvEG0pekKaVleW-18" edge="1">
          <mxGeometry relative="1" as="geometry">
            <mxPoint x="550" y="440" as="targetPoint" />
            <Array as="points">
              <mxPoint x="290" y="440" />
              <mxPoint x="210" y="520" />
              <mxPoint x="220" y="510" />
              <mxPoint x="190" y="510" />
            </Array>
            <mxPoint x="80" y="440" as="sourcePoint" />
          </mxGeometry>
        </mxCell>
        <mxCell id="E5WlhXvvEG0pekKaVleW-52" value="reqPlacementInfo()" style="text;html=1;align=center;verticalAlign=middle;resizable=0;points=[];autosize=1;strokeColor=none;fillColor=none;fontFamily=Times New Roman;fontSize=14;" parent="1" vertex="1">
          <mxGeometry x="115" y="410" width="130" height="30" as="geometry" />
        </mxCell>
        <mxCell id="E5WlhXvvEG0pekKaVleW-83" value="" style="shape=umlDestroy;whiteSpace=wrap;html=1;strokeWidth=3;targetShapes=umlLifeline;fontFamily=Times New Roman;fontSize=14;" parent="1" vertex="1">
          <mxGeometry x="55" y="740" width="30" height="30" as="geometry" />
        </mxCell>
        <mxCell id="SI8LrNcYYZtn0SlJ59PS-2" value="Alt" style="shape=umlFrame;whiteSpace=wrap;html=1;pointerEvents=0;fontSize=14;fontFamily=Times New Roman;" vertex="1" parent="1">
          <mxGeometry x="-25" y="160" width="805" height="200" as="geometry" />
        </mxCell>
        <mxCell id="SI8LrNcYYZtn0SlJ59PS-5" value="" style="edgeStyle=elbowEdgeStyle;rounded=0;orthogonalLoop=1;jettySize=auto;html=1;elbow=vertical;curved=0;fontSize=14;fontFamily=Times New Roman;" edge="1" parent="1" source="E5WlhXvvEG0pekKaVleW-21" target="SI8LrNcYYZtn0SlJ59PS-3">
          <mxGeometry relative="1" as="geometry">
            <mxPoint x="640" y="224.82352941176475" as="targetPoint" />
            <Array as="points">
              <mxPoint x="620" y="140" />
            </Array>
          </mxGeometry>
        </mxCell>
        <mxCell id="SI8LrNcYYZtn0SlJ59PS-6" value="Validate()" style="text;html=1;align=center;verticalAlign=middle;resizable=0;points=[];autosize=1;strokeColor=none;fillColor=none;fontSize=14;fontFamily=Times New Roman;" vertex="1" parent="1">
          <mxGeometry x="590" y="118" width="80" height="30" as="geometry" />
        </mxCell>
        <mxCell id="SI8LrNcYYZtn0SlJ59PS-7" value="" style="endArrow=none;html=1;rounded=0;fontSize=14;fontFamily=Times New Roman;" edge="1" parent="1">
          <mxGeometry width="50" height="50" relative="1" as="geometry">
            <mxPoint x="-30" y="270" as="sourcePoint" />
            <mxPoint x="780" y="270" as="targetPoint" />
          </mxGeometry>
        </mxCell>
        <mxCell id="SI8LrNcYYZtn0SlJ59PS-8" value="If user Valid" style="text;html=1;align=center;verticalAlign=middle;resizable=0;points=[];autosize=1;strokeColor=none;fillColor=none;fontSize=14;fontFamily=Times New Roman;" vertex="1" parent="1">
          <mxGeometry x="-25" y="208" width="90" height="30" as="geometry" />
        </mxCell>
        <mxCell id="SI8LrNcYYZtn0SlJ59PS-9" value="&lt;font style=&quot;font-size: 14px;&quot;&gt;Else&lt;/font&gt;" style="text;html=1;align=center;verticalAlign=middle;resizable=0;points=[];autosize=1;strokeColor=none;fillColor=none;fontFamily=Times New Roman;fontSize=14;" vertex="1" parent="1">
          <mxGeometry x="5" y="280" width="50" height="30" as="geometry" />
        </mxCell>
        <mxCell id="SI8LrNcYYZtn0SlJ59PS-12" value="&lt;br style=&quot;font-size: 14px;&quot;&gt;Invalid" style="html=1;verticalAlign=bottom;endArrow=open;dashed=1;endSize=8;edgeStyle=elbowEdgeStyle;elbow=vertical;curved=0;rounded=0;fontFamily=Times New Roman;fontSize=14;" edge="1" parent="1" source="SI8LrNcYYZtn0SlJ59PS-3" target="E5WlhXvvEG0pekKaVleW-21">
          <mxGeometry x="0.0667" relative="1" as="geometry">
            <mxPoint x="690" y="190" as="sourcePoint" />
            <mxPoint x="620" y="190.47" as="targetPoint" />
            <Array as="points">
              <mxPoint x="630" y="310" />
              <mxPoint x="620" y="300" />
            </Array>
            <mxPoint as="offset" />
          </mxGeometry>
        </mxCell>
        <mxCell id="SI8LrNcYYZtn0SlJ59PS-13" value="Valid" style="html=1;verticalAlign=bottom;endArrow=open;dashed=1;endSize=8;edgeStyle=elbowEdgeStyle;elbow=vertical;curved=0;rounded=0;entryX=1;entryY=0.4;entryDx=0;entryDy=0;entryPerimeter=0;fontFamily=Times New Roman;fontSize=14;" edge="1" parent="1" source="SI8LrNcYYZtn0SlJ59PS-3" target="E5WlhXvvEG0pekKaVleW-21">
          <mxGeometry relative="1" as="geometry">
            <mxPoint x="700" y="200" as="sourcePoint" />
            <mxPoint x="570" y="200" as="targetPoint" />
            <Array as="points">
              <mxPoint x="650" y="200" />
            </Array>
          </mxGeometry>
        </mxCell>
        <mxCell id="SI8LrNcYYZtn0SlJ59PS-15" value="&lt;br style=&quot;font-size: 14px;&quot;&gt;Login Unsuccessful" style="html=1;verticalAlign=bottom;endArrow=open;dashed=1;endSize=8;edgeStyle=elbowEdgeStyle;elbow=vertical;curved=0;rounded=0;fontFamily=Times New Roman;fontSize=14;" edge="1" parent="1" source="E5WlhXvvEG0pekKaVleW-21" target="E5WlhXvvEG0pekKaVleW-18">
          <mxGeometry relative="1" as="geometry">
            <mxPoint x="540" y="330" as="sourcePoint" />
            <mxPoint x="390" y="330.47" as="targetPoint" />
            <Array as="points">
              <mxPoint x="360" y="330" />
            </Array>
          </mxGeometry>
        </mxCell>
        <mxCell id="SI8LrNcYYZtn0SlJ59PS-18" value="" style="edgeStyle=elbowEdgeStyle;rounded=0;orthogonalLoop=1;jettySize=auto;html=1;elbow=vertical;curved=0;fontFamily=Times New Roman;fontSize=14;" edge="1" parent="1" source="SI8LrNcYYZtn0SlJ59PS-16" target="SI8LrNcYYZtn0SlJ59PS-17">
          <mxGeometry relative="1" as="geometry">
            <Array as="points">
              <mxPoint x="660" y="460" />
            </Array>
          </mxGeometry>
        </mxCell>
        <mxCell id="SI8LrNcYYZtn0SlJ59PS-19" value="Fetch Data" style="edgeLabel;html=1;align=center;verticalAlign=middle;resizable=0;points=[];fontFamily=Times New Roman;fontSize=14;" vertex="1" connectable="0" parent="SI8LrNcYYZtn0SlJ59PS-18">
          <mxGeometry x="-0.4392" y="5" relative="1" as="geometry">
            <mxPoint x="18" y="-10" as="offset" />
          </mxGeometry>
        </mxCell>
        <mxCell id="SI8LrNcYYZtn0SlJ59PS-22" value="Requested Data" style="html=1;verticalAlign=bottom;endArrow=open;dashed=1;endSize=8;edgeStyle=elbowEdgeStyle;elbow=vertical;curved=0;rounded=0;fontFamily=Times New Roman;fontSize=14;" edge="1" parent="1" source="SI8LrNcYYZtn0SlJ59PS-17">
          <mxGeometry relative="1" as="geometry">
            <mxPoint x="500" y="490" as="sourcePoint" />
            <mxPoint x="560" y="490" as="targetPoint" />
          </mxGeometry>
        </mxCell>
        <mxCell id="SI8LrNcYYZtn0SlJ59PS-23" value="Recieve Info" style="html=1;verticalAlign=bottom;endArrow=open;dashed=1;endSize=8;edgeStyle=elbowEdgeStyle;elbow=vertical;curved=0;rounded=0;fontFamily=Times New Roman;fontSize=14;" edge="1" parent="1" target="E5WlhXvvEG0pekKaVleW-18">
          <mxGeometry relative="1" as="geometry">
            <mxPoint x="550" y="500" as="sourcePoint" />
            <mxPoint x="420" y="490" as="targetPoint" />
            <Array as="points">
              <mxPoint x="480" y="500" />
              <mxPoint x="460" y="520" />
            </Array>
          </mxGeometry>
        </mxCell>
        <mxCell id="SI8LrNcYYZtn0SlJ59PS-24" value="" style="edgeStyle=elbowEdgeStyle;rounded=0;orthogonalLoop=1;jettySize=auto;html=1;elbow=vertical;curved=0;fontFamily=Times New Roman;fontSize=14;" edge="1" parent="1" source="E5WlhXvvEG0pekKaVleW-18" target="SI8LrNcYYZtn0SlJ59PS-16">
          <mxGeometry relative="1" as="geometry">
            <mxPoint x="520" y="550" as="targetPoint" />
            <Array as="points">
              <mxPoint x="260" y="550" />
              <mxPoint x="180" y="630" />
              <mxPoint x="190" y="620" />
              <mxPoint x="160" y="620" />
            </Array>
            <mxPoint x="90" y="550" as="sourcePoint" />
          </mxGeometry>
        </mxCell>
        <mxCell id="SI8LrNcYYZtn0SlJ59PS-25" value="applyJob()" style="text;html=1;align=center;verticalAlign=middle;resizable=0;points=[];autosize=1;strokeColor=none;fillColor=none;fontFamily=Times New Roman;fontSize=14;" vertex="1" parent="1">
          <mxGeometry x="260" y="520" width="80" height="30" as="geometry" />
        </mxCell>
        <mxCell id="SI8LrNcYYZtn0SlJ59PS-27" value="" style="edgeStyle=elbowEdgeStyle;rounded=0;orthogonalLoop=1;jettySize=auto;html=1;elbow=vertical;curved=0;fontFamily=Times New Roman;fontSize=14;" edge="1" parent="1" source="SI8LrNcYYZtn0SlJ59PS-16" target="SI8LrNcYYZtn0SlJ59PS-17">
          <mxGeometry relative="1" as="geometry">
            <mxPoint x="640" y="585.2727272727273" as="targetPoint" />
            <Array as="points">
              <mxPoint x="630" y="570" />
            </Array>
          </mxGeometry>
        </mxCell>
        <mxCell id="SI8LrNcYYZtn0SlJ59PS-28" value="saveApplication()" style="text;html=1;align=center;verticalAlign=middle;resizable=0;points=[];autosize=1;strokeColor=none;fillColor=none;fontFamily=Times New Roman;fontSize=14;" vertex="1" parent="1">
          <mxGeometry x="570" y="538" width="120" height="30" as="geometry" />
        </mxCell>
        <mxCell id="SI8LrNcYYZtn0SlJ59PS-30" value="Application Submitted" style="html=1;verticalAlign=bottom;endArrow=open;dashed=1;endSize=8;edgeStyle=elbowEdgeStyle;elbow=vertical;curved=0;rounded=0;fontFamily=Times New Roman;fontSize=14;" edge="1" parent="1" source="SI8LrNcYYZtn0SlJ59PS-16" target="E5WlhXvvEG0pekKaVleW-18">
          <mxGeometry relative="1" as="geometry">
            <mxPoint x="505" y="620.18" as="sourcePoint" />
            <mxPoint x="425" y="620.18" as="targetPoint" />
            <Array as="points">
              <mxPoint x="200" y="590" />
            </Array>
          </mxGeometry>
        </mxCell>
        <mxCell id="SI8LrNcYYZtn0SlJ59PS-31" value="" style="edgeStyle=elbowEdgeStyle;rounded=0;orthogonalLoop=1;jettySize=auto;html=1;elbow=vertical;curved=0;fontFamily=Times New Roman;fontSize=14;" edge="1" parent="1" source="E5WlhXvvEG0pekKaVleW-18" target="SI8LrNcYYZtn0SlJ59PS-16">
          <mxGeometry relative="1" as="geometry">
            <mxPoint x="80" y="640" as="sourcePoint" />
            <mxPoint x="545" y="640" as="targetPoint" />
            <Array as="points">
              <mxPoint x="415" y="640" />
            </Array>
          </mxGeometry>
        </mxCell>
        <mxCell id="SI8LrNcYYZtn0SlJ59PS-32" value="&lt;br style=&quot;font-size: 14px;&quot;&gt;logout()" style="edgeLabel;html=1;align=center;verticalAlign=middle;resizable=0;points=[];fontFamily=Times New Roman;fontSize=14;" vertex="1" connectable="0" parent="SI8LrNcYYZtn0SlJ59PS-31">
          <mxGeometry x="-0.0086" y="3" relative="1" as="geometry">
            <mxPoint x="-120" y="-17" as="offset" />
          </mxGeometry>
        </mxCell>
        <mxCell id="SI8LrNcYYZtn0SlJ59PS-34" value="Logout Successful" style="html=1;verticalAlign=bottom;endArrow=open;dashed=1;endSize=8;edgeStyle=elbowEdgeStyle;elbow=vertical;curved=0;rounded=0;fontFamily=Times New Roman;fontSize=14;" edge="1" parent="1" source="SI8LrNcYYZtn0SlJ59PS-16" target="E5WlhXvvEG0pekKaVleW-18">
          <mxGeometry relative="1" as="geometry">
            <mxPoint x="505" y="690.09" as="sourcePoint" />
            <mxPoint x="110" y="690" as="targetPoint" />
            <Array as="points">
              <mxPoint x="150" y="680" />
            </Array>
          </mxGeometry>
        </mxCell>
      </root>
    </mxGraphModel>
  </diagram>
</mxfile>
